<svg width="84.505mm" height="84.669mm" version="1.1" viewBox="0 0 84.505 84.669" xmlns="http://www.w3.org/2000/svg">
<g transform="translate(-71.211 -108.44)" fill="none" stroke="#ff65f1" stroke-linecap="round" stroke-linejoin="round">
<path transform="matrix(.20806 0 0 .20816 89.376 127.25)" d="m291.02 214.49-350.51-1e-5 175.25-303.55z" stroke-width="1.2713" style="paint-order:markers fill stroke"/>
<path transform="matrix(.30797 0 0 .30797 53.79 107.37)" d="m330.49 141.08c0 75.511-61.214 136.72-136.72 136.72s-136.72-61.214-136.72-136.72c2e-6 -75.511 61.214-136.72 136.72-136.72s136.72 61.214 136.72 136.72" stroke-width=".85913" style="paint-order:markers fill stroke"/>
<path transform="matrix(.32904 0 0 .32919 180.55 90.639)" d="m-314.7 246.83 221.64 1e-5 -110.66 63.99z" stroke-width=".80392" style="paint-order:markers fill stroke"/>
<path transform="matrix(.31323 0 0 .31337 177.57 111.24)" d="m-204.65 233.86-69.788-40.292v-80.584l69.788-40.292 69.788 40.292v80.584z" stroke-width=".84451" style="paint-order:markers fill stroke"/>
<path transform="matrix(.18593 .18602 -.18593 .18602 193.53 182.21)" d="m-344.86 85.78h117.57v117.57h-117.57z" stroke-width="1.006" style="paint-order:markers fill stroke"/>
<path transform="matrix(.20812 0 0 .20822 70.901 109.17)" d="m89.357 44.383 53.689 39.456-43.574 76.298z" stroke-width="1.271" style="paint-order:markers fill stroke"/>
<path transform="matrix(.32904 -.00086182 .00086142 .32919 180.36 90.528)" d="m-137.4 198.17 61.527-16.706" stroke-width=".80392" style="paint-order:markers fill stroke"/>
<path transform="matrix(-.32904 -.00086182 -.00086142 .32919 46.565 90.528)" d="m-137.4 198.17 61.527-16.706" stroke-width=".80392" style="paint-order:markers fill stroke"/>
<g stroke-width=".80392">
<path transform="matrix(.32904 0 0 .32919 180.53 90.646)" d="m-314.65 246.81 44.386-12.178" style="paint-order:markers fill stroke"/>
<path transform="matrix(-.32904 0 0 .32919 46.394 90.646)" d="m-314.65 246.81 44.386-12.178" style="paint-order:markers fill stroke"/>
<path transform="matrix(.32904 0 0 .32919 180.53 90.646)" d="m-270.27 222.49h-55.269" style="paint-order:markers fill stroke"/>
<path transform="matrix(.32904 0 0 .32919 242.44 90.646)" d="m-270.27 222.49h-55.269" style="paint-order:markers fill stroke"/>
</g>
<path transform="matrix(-.20812 0 0 .20822 156.03 109.17)" d="m89.357 44.383 53.689 39.456-43.574 76.298z" stroke-width="1.271" style="paint-order:markers fill stroke"/>
</g>
</svg>
